<?xml version="1.0" encoding="UTF-8" standalone="no"?>
<!DOCTYPE svg PUBLIC "-//W3C//DTD SVG 1.1//EN"
 "http://www.w3.org/Graphics/SVG/1.1/DTD/svg11.dtd">
<!-- Generated by graphviz version 2.40.1 (20161225.0304)
 -->
<!-- Title: dependencies Pages: 1 -->
<svg width="1698pt" height="284pt"
 viewBox="0.00 0.00 1698.00 284.00" xmlns="http://www.w3.org/2000/svg" xmlns:xlink="http://www.w3.org/1999/xlink">
<g id="graph0" class="graph" transform="scale(1 1) rotate(0) translate(4 280)">
<title>dependencies</title>
<polygon fill="#ffffff" stroke="transparent" points="-4,4 -4,-280 1694,-280 1694,4 -4,4"/>
<text text-anchor="start" x="824.0091" y="-42.4" font-family="sans-serif" font-weight="bold" font-size="14.00" fill="#000000">Legend</text>
<polygon fill="#ffffb3" stroke="transparent" points="611,-10 611,-30 631,-30 631,-10 611,-10"/>
<text text-anchor="start" x="634.629" y="-15.4" font-family="sans-serif" font-size="14.00" fill="#000000"> &#160;Declarations</text>
<polygon fill="#8dd3c7" stroke="transparent" points="724,-10 724,-30 744,-30 744,-10 724,-10"/>
<text text-anchor="start" x="747.7251" y="-15.4" font-family="sans-serif" font-size="14.00" fill="#000000"> &#160;Module</text>
<polygon fill="#80b1d3" stroke="transparent" points="810,-10 810,-30 830,-30 830,-10 810,-10"/>
<text text-anchor="start" x="833.7812" y="-15.4" font-family="sans-serif" font-size="14.00" fill="#000000"> &#160;Bootstrap</text>
<polygon fill="#fdb462" stroke="transparent" points="907,-10 907,-30 927,-30 927,-10 907,-10"/>
<text text-anchor="start" x="930.6732" y="-15.4" font-family="sans-serif" font-size="14.00" fill="#000000"> &#160;Providers</text>
<polygon fill="#fb8072" stroke="transparent" points="1003,-10 1003,-30 1023,-30 1023,-10 1003,-10"/>
<text text-anchor="start" x="1026.7258" y="-15.4" font-family="sans-serif" font-size="14.00" fill="#000000"> &#160;Exports</text>
<g id="clust1" class="cluster">
<title>cluster_AppModule</title>
<polygon fill="none" stroke="#000000" stroke-dasharray="1,5" points="8,-70 8,-268 1397,-268 1397,-70 8,-70"/>
</g>
<g id="clust2" class="cluster">
<title>cluster_AppModule_declarations</title>
<polygon fill="none" stroke="#000000" points="392,-78 392,-130 1389,-130 1389,-78 392,-78"/>
</g>
<g id="clust10" class="cluster">
<title>cluster_AppModule_imports</title>
<polygon fill="none" stroke="#000000" points="240,-78 240,-130 384,-130 384,-78 240,-78"/>
</g>
<g id="clust12" class="cluster">
<title>cluster_AppModule_bootstrap</title>
<polygon fill="none" stroke="#000000" points="685,-208 685,-260 809,-260 809,-208 685,-208"/>
</g>
<g id="clust13" class="cluster">
<title>cluster_AppModule_providers</title>
<polygon fill="none" stroke="#000000" points="16,-78 16,-130 232,-130 232,-78 16,-78"/>
</g>
<g id="clust20" class="cluster">
<title>cluster_PipesModule</title>
<polygon fill="none" stroke="#000000" stroke-dasharray="1,5" points="1405,-70 1405,-268 1682,-268 1682,-70 1405,-70"/>
</g>
<g id="clust21" class="cluster">
<title>cluster_PipesModule_declarations</title>
<polygon fill="none" stroke="#000000" points="1417,-78 1417,-130 1671,-130 1671,-78 1417,-78"/>
</g>
<g id="clust25" class="cluster">
<title>cluster_PipesModule_exports</title>
<polygon fill="none" stroke="#000000" points="1413,-208 1413,-260 1674,-260 1674,-208 1413,-208"/>
</g>
<!-- AppComponent -->
<g id="node1" class="node">
<title>AppComponent</title>
<polygon fill="#ffffb3" stroke="#000000" points="1380.9399,-122 1275.0601,-122 1275.0601,-86 1380.9399,-86 1380.9399,-122"/>
<text text-anchor="middle" x="1328" y="-99.8" font-family="Times,serif" font-size="14.00" fill="#000000">AppComponent</text>
</g>
<!-- AppModule -->
<g id="node8" class="node">
<title>AppModule</title>
<polygon fill="#8dd3c7" stroke="#000000" points="788.6571,-187 785.6571,-191 764.6571,-191 761.6571,-187 705.3429,-187 705.3429,-151 788.6571,-151 788.6571,-187"/>
<text text-anchor="middle" x="747" y="-164.8" font-family="Times,serif" font-size="14.00" fill="#000000">AppModule</text>
</g>
<!-- AppComponent&#45;&gt;AppModule -->
<g id="edge1" class="edge">
<title>AppComponent&#45;&gt;AppModule</title>
<path fill="none" stroke="#000000" d="M1328,-122.0109C1328,-144.4852 1328,-180 1328,-180 1328,-180 798.7841,-180 798.7841,-180"/>
<polygon fill="#000000" stroke="#000000" points="798.7841,-176.5001 788.7841,-180 798.7841,-183.5001 798.7841,-176.5001"/>
</g>
<!-- AppNavComponent -->
<g id="node2" class="node">
<title>AppNavComponent</title>
<polygon fill="#ffffb3" stroke="#000000" points="1257.2604,-122 1128.7396,-122 1128.7396,-86 1257.2604,-86 1257.2604,-122"/>
<text text-anchor="middle" x="1193" y="-99.8" font-family="Times,serif" font-size="14.00" fill="#000000">AppNavComponent</text>
</g>
<!-- AppNavComponent&#45;&gt;AppModule -->
<g id="edge2" class="edge">
<title>AppNavComponent&#45;&gt;AppModule</title>
<path fill="none" stroke="#000000" d="M1193,-122.1289C1193,-142.5724 1193,-173 1193,-173 1193,-173 798.9586,-173 798.9586,-173"/>
<polygon fill="#000000" stroke="#000000" points="798.9586,-169.5001 788.9586,-173 798.9586,-176.5001 798.9586,-169.5001"/>
</g>
<!-- LoginComponent -->
<g id="node3" class="node">
<title>LoginComponent</title>
<polygon fill="#ffffb3" stroke="#000000" points="1110.2758,-122 995.7242,-122 995.7242,-86 1110.2758,-86 1110.2758,-122"/>
<text text-anchor="middle" x="1053" y="-99.8" font-family="Times,serif" font-size="14.00" fill="#000000">LoginComponent</text>
</g>
<!-- LoginComponent&#45;&gt;AppModule -->
<g id="edge3" class="edge">
<title>LoginComponent&#45;&gt;AppModule</title>
<path fill="none" stroke="#000000" d="M1053,-122.2667C1053,-140.5552 1053,-166 1053,-166 1053,-166 798.9064,-166 798.9064,-166"/>
<polygon fill="#000000" stroke="#000000" points="798.9064,-162.5001 788.9064,-166 798.9063,-169.5001 798.9064,-162.5001"/>
</g>
<!-- UserDetailsComponent -->
<g id="node4" class="node">
<title>UserDetailsComponent</title>
<polygon fill="#ffffb3" stroke="#000000" points="977.9116,-122 830.0884,-122 830.0884,-86 977.9116,-86 977.9116,-122"/>
<text text-anchor="middle" x="904" y="-99.8" font-family="Times,serif" font-size="14.00" fill="#000000">UserDetailsComponent</text>
</g>
<!-- UserDetailsComponent&#45;&gt;AppModule -->
<g id="edge4" class="edge">
<title>UserDetailsComponent&#45;&gt;AppModule</title>
<path fill="none" stroke="#000000" d="M904,-122.0091C904,-138.0494 904,-159 904,-159 904,-159 798.6609,-159 798.6609,-159"/>
<polygon fill="#000000" stroke="#000000" points="798.661,-155.5001 788.6609,-159 798.6609,-162.5001 798.661,-155.5001"/>
</g>
<!-- UserEditComponent -->
<g id="node5" class="node">
<title>UserEditComponent</title>
<polygon fill="#ffffb3" stroke="#000000" points="812.5926,-122 681.4074,-122 681.4074,-86 812.5926,-86 812.5926,-122"/>
<text text-anchor="middle" x="747" y="-99.8" font-family="Times,serif" font-size="14.00" fill="#000000">UserEditComponent</text>
</g>
<!-- UserEditComponent&#45;&gt;AppModule -->
<g id="edge5" class="edge">
<title>UserEditComponent&#45;&gt;AppModule</title>
<path fill="none" stroke="#000000" d="M747,-122.1061C747,-122.1061 747,-140.991 747,-140.991"/>
<polygon fill="#000000" stroke="#000000" points="743.5001,-140.9909 747,-150.991 750.5001,-140.991 743.5001,-140.9909"/>
</g>
<!-- UserPostComponent -->
<g id="node6" class="node">
<title>UserPostComponent</title>
<polygon fill="#ffffb3" stroke="#000000" points="663.8767,-122 532.1233,-122 532.1233,-86 663.8767,-86 663.8767,-122"/>
<text text-anchor="middle" x="598" y="-99.8" font-family="Times,serif" font-size="14.00" fill="#000000">UserPostComponent</text>
</g>
<!-- UserPostComponent&#45;&gt;AppModule -->
<g id="edge6" class="edge">
<title>UserPostComponent&#45;&gt;AppModule</title>
<path fill="none" stroke="#000000" d="M598,-122.0091C598,-138.0494 598,-159 598,-159 598,-159 695.0987,-159 695.0987,-159"/>
<polygon fill="#000000" stroke="#000000" points="695.0987,-162.5001 705.0987,-159 695.0986,-155.5001 695.0987,-162.5001"/>
</g>
<!-- UsersComponent -->
<g id="node7" class="node">
<title>UsersComponent</title>
<polygon fill="#ffffb3" stroke="#000000" points="513.7036,-122 400.2964,-122 400.2964,-86 513.7036,-86 513.7036,-122"/>
<text text-anchor="middle" x="457" y="-99.8" font-family="Times,serif" font-size="14.00" fill="#000000">UsersComponent</text>
</g>
<!-- UsersComponent&#45;&gt;AppModule -->
<g id="edge7" class="edge">
<title>UsersComponent&#45;&gt;AppModule</title>
<path fill="none" stroke="#000000" d="M457,-122.2667C457,-140.5552 457,-166 457,-166 457,-166 695.1412,-166 695.1412,-166"/>
<polygon fill="#000000" stroke="#000000" points="695.1413,-169.5001 705.1412,-166 695.1412,-162.5001 695.1413,-169.5001"/>
</g>
<!-- AppComponent  -->
<g id="node10" class="node">
<title>AppComponent </title>
<polygon fill="#80b1d3" stroke="#000000" points="801.439,-252 692.561,-252 692.561,-216 801.439,-216 801.439,-252"/>
<text text-anchor="middle" x="747" y="-229.8" font-family="Times,serif" font-size="14.00" fill="#000000">AppComponent </text>
</g>
<!-- AppModule&#45;&gt;AppComponent  -->
<g id="edge9" class="edge">
<title>AppModule&#45;&gt;AppComponent </title>
<path fill="none" stroke="#000000" stroke-dasharray="1,5" d="M747,-187.1061C747,-187.1061 747,-205.991 747,-205.991"/>
<polygon fill="#000000" stroke="#000000" points="743.5001,-205.9909 747,-215.991 750.5001,-205.991 743.5001,-205.9909"/>
</g>
<!-- AppRoutingModule -->
<g id="node9" class="node">
<title>AppRoutingModule</title>
<polygon fill="#8dd3c7" stroke="#000000" points="376.2744,-122 373.2744,-126 352.2744,-126 349.2744,-122 247.7256,-122 247.7256,-86 376.2744,-86 376.2744,-122"/>
<text text-anchor="middle" x="312" y="-99.8" font-family="Times,serif" font-size="14.00" fill="#000000">AppRoutingModule</text>
</g>
<!-- AppRoutingModule&#45;&gt;AppModule -->
<g id="edge8" class="edge">
<title>AppRoutingModule&#45;&gt;AppModule</title>
<path fill="none" stroke="#000000" d="M312,-122.1289C312,-142.5724 312,-173 312,-173 312,-173 695.2904,-173 695.2904,-173"/>
<polygon fill="#000000" stroke="#000000" points="695.2904,-176.5001 705.2904,-173 695.2903,-169.5001 695.2904,-176.5001"/>
</g>
<!-- HttpInterceptorService -->
<g id="node11" class="node">
<title>HttpInterceptorService</title>
<ellipse fill="#fdb462" stroke="#000000" cx="124" cy="-104" rx="99.5327" ry="18"/>
<text text-anchor="middle" x="124" y="-99.8" font-family="Times,serif" font-size="14.00" fill="#000000">HttpInterceptorService</text>
</g>
<!-- HttpInterceptorService&#45;&gt;AppModule -->
<g id="edge10" class="edge">
<title>HttpInterceptorService&#45;&gt;AppModule</title>
<path fill="none" stroke="#000000" d="M124,-122.0109C124,-144.4852 124,-180 124,-180 124,-180 695.1558,-180 695.1558,-180"/>
<polygon fill="#000000" stroke="#000000" points="695.1559,-183.5001 705.1558,-180 695.1558,-176.5001 695.1559,-183.5001"/>
</g>
<!-- UserActivatedPipe -->
<g id="node12" class="node">
<title>UserActivatedPipe</title>
<polygon fill="#ffffb3" stroke="#000000" points="1662.7367,-122 1541.2633,-122 1541.2633,-86 1662.7367,-86 1662.7367,-122"/>
<text text-anchor="middle" x="1602" y="-99.8" font-family="Times,serif" font-size="14.00" fill="#000000">UserActivatedPipe</text>
</g>
<!-- PipesModule -->
<g id="node14" class="node">
<title>PipesModule</title>
<polygon fill="#8dd3c7" stroke="#000000" points="1519.8823,-187 1516.8823,-191 1495.8823,-191 1492.8823,-187 1430.1177,-187 1430.1177,-151 1519.8823,-151 1519.8823,-187"/>
<text text-anchor="middle" x="1475" y="-164.8" font-family="Times,serif" font-size="14.00" fill="#000000">PipesModule</text>
</g>
<!-- UserActivatedPipe&#45;&gt;PipesModule -->
<g id="edge11" class="edge">
<title>UserActivatedPipe&#45;&gt;PipesModule</title>
<path fill="none" stroke="#000000" d="M1622.2894,-122.0225C1622.2894,-139.3734 1622.2894,-163 1622.2894,-163 1622.2894,-163 1529.992,-163 1529.992,-163"/>
<polygon fill="#000000" stroke="#000000" points="1529.992,-159.5001 1519.992,-163 1529.992,-166.5001 1529.992,-159.5001"/>
</g>
<!-- UserFilterPipe -->
<g id="node13" class="node">
<title>UserFilterPipe</title>
<polygon fill="#ffffb3" stroke="#000000" points="1522.6444,-122 1425.3556,-122 1425.3556,-86 1522.6444,-86 1522.6444,-122"/>
<text text-anchor="middle" x="1474" y="-99.8" font-family="Times,serif" font-size="14.00" fill="#000000">UserFilterPipe</text>
</g>
<!-- UserFilterPipe&#45;&gt;PipesModule -->
<g id="edge12" class="edge">
<title>UserFilterPipe&#45;&gt;PipesModule</title>
<path fill="none" stroke="#000000" d="M1475,-122.1061C1475,-122.1061 1475,-140.991 1475,-140.991"/>
<polygon fill="#000000" stroke="#000000" points="1471.5001,-140.9909 1475,-150.991 1478.5001,-140.991 1471.5001,-140.9909"/>
</g>
<!-- UserActivatedPipe  -->
<g id="node15" class="node">
<title>UserActivatedPipe </title>
<polygon fill="#fb8072" stroke="#000000" points="1665.7366,-252 1540.2634,-252 1540.2634,-216 1665.7366,-216 1665.7366,-252"/>
<text text-anchor="middle" x="1603" y="-229.8" font-family="Times,serif" font-size="14.00" fill="#000000">UserActivatedPipe </text>
</g>
<!-- PipesModule&#45;&gt;UserActivatedPipe  -->
<g id="edge13" class="edge">
<title>PipesModule&#45;&gt;UserActivatedPipe </title>
<path fill="none" stroke="#000000" stroke-dasharray="5,2" d="M1519.9456,-175C1549.1089,-175 1581.7106,-175 1581.7106,-175 1581.7106,-175 1581.7106,-205.9775 1581.7106,-205.9775"/>
<polygon fill="#000000" stroke="#000000" points="1578.2107,-205.9774 1581.7106,-215.9775 1585.2107,-205.9775 1578.2107,-205.9774"/>
</g>
<!-- UserFilterPipe  -->
<g id="node16" class="node">
<title>UserFilterPipe </title>
<polygon fill="#fb8072" stroke="#000000" points="1522.6439,-252 1421.3561,-252 1421.3561,-216 1522.6439,-216 1522.6439,-252"/>
<text text-anchor="middle" x="1472" y="-229.8" font-family="Times,serif" font-size="14.00" fill="#000000">UserFilterPipe </text>
</g>
<!-- PipesModule&#45;&gt;UserFilterPipe  -->
<g id="edge14" class="edge">
<title>PipesModule&#45;&gt;UserFilterPipe </title>
<path fill="none" stroke="#000000" stroke-dasharray="5,2" d="M1475,-187.1061C1475,-187.1061 1475,-205.991 1475,-205.991"/>
<polygon fill="#000000" stroke="#000000" points="1471.5001,-205.9909 1475,-215.991 1478.5001,-205.991 1471.5001,-205.9909"/>
</g>
</g>
</svg>
