<?xml version="1.0" encoding="UTF-8" standalone="no"?>
<!DOCTYPE svg PUBLIC "-//W3C//DTD SVG 1.1//EN"
 "http://www.w3.org/Graphics/SVG/1.1/DTD/svg11.dtd">
<!-- Generated by graphviz version 2.40.1 (20161225.0304)
 -->
<!-- Title: dependencies Pages: 1 -->
<svg width="1905pt" height="284pt"
 viewBox="0.00 0.00 1905.00 284.00" xmlns="http://www.w3.org/2000/svg" xmlns:xlink="http://www.w3.org/1999/xlink">
<g id="graph0" class="graph" transform="scale(1 1) rotate(0) translate(4 280)">
<title>dependencies</title>
<polygon fill="#ffffff" stroke="transparent" points="-4,4 -4,-280 1901,-280 1901,4 -4,4"/>
<text text-anchor="start" x="927.5091" y="-42.4" font-family="sans-serif" font-weight="bold" font-size="14.00" fill="#000000">Legend</text>
<polygon fill="#ffffb3" stroke="transparent" points="714.5,-10 714.5,-30 734.5,-30 734.5,-10 714.5,-10"/>
<text text-anchor="start" x="738.129" y="-15.4" font-family="sans-serif" font-size="14.00" fill="#000000"> &#160;Declarations</text>
<polygon fill="#8dd3c7" stroke="transparent" points="827.5,-10 827.5,-30 847.5,-30 847.5,-10 827.5,-10"/>
<text text-anchor="start" x="851.2251" y="-15.4" font-family="sans-serif" font-size="14.00" fill="#000000"> &#160;Module</text>
<polygon fill="#80b1d3" stroke="transparent" points="913.5,-10 913.5,-30 933.5,-30 933.5,-10 913.5,-10"/>
<text text-anchor="start" x="937.2812" y="-15.4" font-family="sans-serif" font-size="14.00" fill="#000000"> &#160;Bootstrap</text>
<polygon fill="#fdb462" stroke="transparent" points="1010.5,-10 1010.5,-30 1030.5,-30 1030.5,-10 1010.5,-10"/>
<text text-anchor="start" x="1034.1732" y="-15.4" font-family="sans-serif" font-size="14.00" fill="#000000"> &#160;Providers</text>
<polygon fill="#fb8072" stroke="transparent" points="1106.5,-10 1106.5,-30 1126.5,-30 1126.5,-10 1106.5,-10"/>
<text text-anchor="start" x="1130.2258" y="-15.4" font-family="sans-serif" font-size="14.00" fill="#000000"> &#160;Exports</text>
<g id="clust1" class="cluster">
<title>cluster_AppModule</title>
<polygon fill="none" stroke="#000000" stroke-dasharray="1,5" points="8,-70 8,-268 1604,-268 1604,-70 8,-70"/>
</g>
<g id="clust2" class="cluster">
<title>cluster_AppModule_declarations</title>
<polygon fill="none" stroke="#000000" points="392,-78 392,-130 1596,-130 1596,-78 392,-78"/>
</g>
<g id="clust11" class="cluster">
<title>cluster_AppModule_imports</title>
<polygon fill="none" stroke="#000000" points="240,-78 240,-130 384,-130 384,-78 240,-78"/>
</g>
<g id="clust13" class="cluster">
<title>cluster_AppModule_bootstrap</title>
<polygon fill="none" stroke="#000000" points="763,-208 763,-260 887,-260 887,-208 763,-208"/>
</g>
<g id="clust14" class="cluster">
<title>cluster_AppModule_providers</title>
<polygon fill="none" stroke="#000000" points="16,-78 16,-130 232,-130 232,-78 16,-78"/>
</g>
<g id="clust21" class="cluster">
<title>cluster_PipesModule</title>
<polygon fill="none" stroke="#000000" stroke-dasharray="1,5" points="1612,-70 1612,-268 1889,-268 1889,-70 1612,-70"/>
</g>
<g id="clust22" class="cluster">
<title>cluster_PipesModule_declarations</title>
<polygon fill="none" stroke="#000000" points="1624,-78 1624,-130 1878,-130 1878,-78 1624,-78"/>
</g>
<g id="clust26" class="cluster">
<title>cluster_PipesModule_exports</title>
<polygon fill="none" stroke="#000000" points="1620,-208 1620,-260 1881,-260 1881,-208 1620,-208"/>
</g>
<!-- AppComponent -->
<g id="node1" class="node">
<title>AppComponent</title>
<polygon fill="#ffffb3" stroke="#000000" points="1587.9399,-122 1482.0601,-122 1482.0601,-86 1587.9399,-86 1587.9399,-122"/>
<text text-anchor="middle" x="1535" y="-99.8" font-family="Times,serif" font-size="14.00" fill="#000000">AppComponent</text>
</g>
<!-- AppModule -->
<g id="node9" class="node">
<title>AppModule</title>
<polygon fill="#8dd3c7" stroke="#000000" points="866.6571,-187 863.6571,-191 842.6571,-191 839.6571,-187 783.3429,-187 783.3429,-151 866.6571,-151 866.6571,-187"/>
<text text-anchor="middle" x="825" y="-164.8" font-family="Times,serif" font-size="14.00" fill="#000000">AppModule</text>
</g>
<!-- AppComponent&#45;&gt;AppModule -->
<g id="edge1" class="edge">
<title>AppComponent&#45;&gt;AppModule</title>
<path fill="none" stroke="#000000" d="M1535,-122.0109C1535,-144.4852 1535,-180 1535,-180 1535,-180 876.763,-180 876.763,-180"/>
<polygon fill="#000000" stroke="#000000" points="876.7631,-176.5001 866.763,-180 876.763,-183.5001 876.7631,-176.5001"/>
</g>
<!-- AppNavComponent -->
<g id="node2" class="node">
<title>AppNavComponent</title>
<polygon fill="#ffffb3" stroke="#000000" points="1464.2604,-122 1335.7396,-122 1335.7396,-86 1464.2604,-86 1464.2604,-122"/>
<text text-anchor="middle" x="1400" y="-99.8" font-family="Times,serif" font-size="14.00" fill="#000000">AppNavComponent</text>
</g>
<!-- AppNavComponent&#45;&gt;AppModule -->
<g id="edge2" class="edge">
<title>AppNavComponent&#45;&gt;AppModule</title>
<path fill="none" stroke="#000000" d="M1400,-122.1289C1400,-142.5724 1400,-173 1400,-173 1400,-173 876.8158,-173 876.8158,-173"/>
<polygon fill="#000000" stroke="#000000" points="876.8158,-169.5001 866.8158,-173 876.8157,-176.5001 876.8158,-169.5001"/>
</g>
<!-- LoginComponent -->
<g id="node3" class="node">
<title>LoginComponent</title>
<polygon fill="#ffffb3" stroke="#000000" points="1317.2758,-122 1202.7242,-122 1202.7242,-86 1317.2758,-86 1317.2758,-122"/>
<text text-anchor="middle" x="1260" y="-99.8" font-family="Times,serif" font-size="14.00" fill="#000000">LoginComponent</text>
</g>
<!-- LoginComponent&#45;&gt;AppModule -->
<g id="edge3" class="edge">
<title>LoginComponent&#45;&gt;AppModule</title>
<path fill="none" stroke="#000000" d="M1260,-122.2667C1260,-140.5552 1260,-166 1260,-166 1260,-166 876.7096,-166 876.7096,-166"/>
<polygon fill="#000000" stroke="#000000" points="876.7097,-162.5001 866.7096,-166 876.7096,-169.5001 876.7097,-162.5001"/>
</g>
<!-- MatConfirmDialogComponent -->
<g id="node4" class="node">
<title>MatConfirmDialogComponent</title>
<polygon fill="#ffffb3" stroke="#000000" points="1184.9241,-122 995.0759,-122 995.0759,-86 1184.9241,-86 1184.9241,-122"/>
<text text-anchor="middle" x="1090" y="-99.8" font-family="Times,serif" font-size="14.00" fill="#000000">MatConfirmDialogComponent</text>
</g>
<!-- MatConfirmDialogComponent&#45;&gt;AppModule -->
<g id="edge4" class="edge">
<title>MatConfirmDialogComponent&#45;&gt;AppModule</title>
<path fill="none" stroke="#000000" d="M1090,-122.0091C1090,-138.0494 1090,-159 1090,-159 1090,-159 876.6978,-159 876.6978,-159"/>
<polygon fill="#000000" stroke="#000000" points="876.6978,-155.5001 866.6978,-159 876.6977,-162.5001 876.6978,-155.5001"/>
</g>
<!-- UserDetailsComponent -->
<g id="node5" class="node">
<title>UserDetailsComponent</title>
<polygon fill="#ffffb3" stroke="#000000" points="977.9116,-122 830.0884,-122 830.0884,-86 977.9116,-86 977.9116,-122"/>
<text text-anchor="middle" x="904" y="-99.8" font-family="Times,serif" font-size="14.00" fill="#000000">UserDetailsComponent</text>
</g>
<!-- UserDetailsComponent&#45;&gt;AppModule -->
<g id="edge5" class="edge">
<title>UserDetailsComponent&#45;&gt;AppModule</title>
<path fill="none" stroke="#000000" d="M848.5614,-122.1061C848.5614,-122.1061 848.5614,-140.991 848.5614,-140.991"/>
<polygon fill="#000000" stroke="#000000" points="845.0614,-140.9909 848.5614,-150.991 852.0614,-140.991 845.0614,-140.9909"/>
</g>
<!-- UserEditComponent -->
<g id="node6" class="node">
<title>UserEditComponent</title>
<polygon fill="#ffffb3" stroke="#000000" points="812.5926,-122 681.4074,-122 681.4074,-86 812.5926,-86 812.5926,-122"/>
<text text-anchor="middle" x="747" y="-99.8" font-family="Times,serif" font-size="14.00" fill="#000000">UserEditComponent</text>
</g>
<!-- UserEditComponent&#45;&gt;AppModule -->
<g id="edge6" class="edge">
<title>UserEditComponent&#45;&gt;AppModule</title>
<path fill="none" stroke="#000000" d="M797.8591,-122.1061C797.8591,-122.1061 797.8591,-140.991 797.8591,-140.991"/>
<polygon fill="#000000" stroke="#000000" points="794.3591,-140.9909 797.8591,-150.991 801.3591,-140.991 794.3591,-140.9909"/>
</g>
<!-- UserPostComponent -->
<g id="node7" class="node">
<title>UserPostComponent</title>
<polygon fill="#ffffb3" stroke="#000000" points="663.8767,-122 532.1233,-122 532.1233,-86 663.8767,-86 663.8767,-122"/>
<text text-anchor="middle" x="598" y="-99.8" font-family="Times,serif" font-size="14.00" fill="#000000">UserPostComponent</text>
</g>
<!-- UserPostComponent&#45;&gt;AppModule -->
<g id="edge7" class="edge">
<title>UserPostComponent&#45;&gt;AppModule</title>
<path fill="none" stroke="#000000" d="M598,-122.0091C598,-138.0494 598,-159 598,-159 598,-159 773.1002,-159 773.1002,-159"/>
<polygon fill="#000000" stroke="#000000" points="773.1002,-162.5001 783.1002,-159 773.1001,-155.5001 773.1002,-162.5001"/>
</g>
<!-- UsersComponent -->
<g id="node8" class="node">
<title>UsersComponent</title>
<polygon fill="#ffffb3" stroke="#000000" points="513.7036,-122 400.2964,-122 400.2964,-86 513.7036,-86 513.7036,-122"/>
<text text-anchor="middle" x="457" y="-99.8" font-family="Times,serif" font-size="14.00" fill="#000000">UsersComponent</text>
</g>
<!-- UsersComponent&#45;&gt;AppModule -->
<g id="edge8" class="edge">
<title>UsersComponent&#45;&gt;AppModule</title>
<path fill="none" stroke="#000000" d="M457,-122.2667C457,-140.5552 457,-166 457,-166 457,-166 773.144,-166 773.144,-166"/>
<polygon fill="#000000" stroke="#000000" points="773.144,-169.5001 783.144,-166 773.144,-162.5001 773.144,-169.5001"/>
</g>
<!-- AppComponent  -->
<g id="node11" class="node">
<title>AppComponent </title>
<polygon fill="#80b1d3" stroke="#000000" points="879.439,-252 770.561,-252 770.561,-216 879.439,-216 879.439,-252"/>
<text text-anchor="middle" x="825" y="-229.8" font-family="Times,serif" font-size="14.00" fill="#000000">AppComponent </text>
</g>
<!-- AppModule&#45;&gt;AppComponent  -->
<g id="edge10" class="edge">
<title>AppModule&#45;&gt;AppComponent </title>
<path fill="none" stroke="#000000" stroke-dasharray="1,5" d="M825,-187.1061C825,-187.1061 825,-205.991 825,-205.991"/>
<polygon fill="#000000" stroke="#000000" points="821.5001,-205.9909 825,-215.991 828.5001,-205.991 821.5001,-205.9909"/>
</g>
<!-- AppRoutingModule -->
<g id="node10" class="node">
<title>AppRoutingModule</title>
<polygon fill="#8dd3c7" stroke="#000000" points="376.2744,-122 373.2744,-126 352.2744,-126 349.2744,-122 247.7256,-122 247.7256,-86 376.2744,-86 376.2744,-122"/>
<text text-anchor="middle" x="312" y="-99.8" font-family="Times,serif" font-size="14.00" fill="#000000">AppRoutingModule</text>
</g>
<!-- AppRoutingModule&#45;&gt;AppModule -->
<g id="edge9" class="edge">
<title>AppRoutingModule&#45;&gt;AppModule</title>
<path fill="none" stroke="#000000" d="M312,-122.1289C312,-142.5724 312,-173 312,-173 312,-173 773.0191,-173 773.0191,-173"/>
<polygon fill="#000000" stroke="#000000" points="773.0191,-176.5001 783.0191,-173 773.019,-169.5001 773.0191,-176.5001"/>
</g>
<!-- HttpInterceptorService -->
<g id="node12" class="node">
<title>HttpInterceptorService</title>
<ellipse fill="#fdb462" stroke="#000000" cx="124" cy="-104" rx="99.5327" ry="18"/>
<text text-anchor="middle" x="124" y="-99.8" font-family="Times,serif" font-size="14.00" fill="#000000">HttpInterceptorService</text>
</g>
<!-- HttpInterceptorService&#45;&gt;AppModule -->
<g id="edge11" class="edge">
<title>HttpInterceptorService&#45;&gt;AppModule</title>
<path fill="none" stroke="#000000" d="M124,-122.0109C124,-144.4852 124,-180 124,-180 124,-180 773.2486,-180 773.2486,-180"/>
<polygon fill="#000000" stroke="#000000" points="773.2486,-183.5001 783.2486,-180 773.2485,-176.5001 773.2486,-183.5001"/>
</g>
<!-- UserActivatedPipe -->
<g id="node13" class="node">
<title>UserActivatedPipe</title>
<polygon fill="#ffffb3" stroke="#000000" points="1869.7367,-122 1748.2633,-122 1748.2633,-86 1869.7367,-86 1869.7367,-122"/>
<text text-anchor="middle" x="1809" y="-99.8" font-family="Times,serif" font-size="14.00" fill="#000000">UserActivatedPipe</text>
</g>
<!-- PipesModule -->
<g id="node15" class="node">
<title>PipesModule</title>
<polygon fill="#8dd3c7" stroke="#000000" points="1726.8823,-187 1723.8823,-191 1702.8823,-191 1699.8823,-187 1637.1177,-187 1637.1177,-151 1726.8823,-151 1726.8823,-187"/>
<text text-anchor="middle" x="1682" y="-164.8" font-family="Times,serif" font-size="14.00" fill="#000000">PipesModule</text>
</g>
<!-- UserActivatedPipe&#45;&gt;PipesModule -->
<g id="edge12" class="edge">
<title>UserActivatedPipe&#45;&gt;PipesModule</title>
<path fill="none" stroke="#000000" d="M1829.2894,-122.0225C1829.2894,-139.3734 1829.2894,-163 1829.2894,-163 1829.2894,-163 1736.992,-163 1736.992,-163"/>
<polygon fill="#000000" stroke="#000000" points="1736.992,-159.5001 1726.992,-163 1736.992,-166.5001 1736.992,-159.5001"/>
</g>
<!-- UserFilterPipe -->
<g id="node14" class="node">
<title>UserFilterPipe</title>
<polygon fill="#ffffb3" stroke="#000000" points="1729.6444,-122 1632.3556,-122 1632.3556,-86 1729.6444,-86 1729.6444,-122"/>
<text text-anchor="middle" x="1681" y="-99.8" font-family="Times,serif" font-size="14.00" fill="#000000">UserFilterPipe</text>
</g>
<!-- UserFilterPipe&#45;&gt;PipesModule -->
<g id="edge13" class="edge">
<title>UserFilterPipe&#45;&gt;PipesModule</title>
<path fill="none" stroke="#000000" d="M1682,-122.1061C1682,-122.1061 1682,-140.991 1682,-140.991"/>
<polygon fill="#000000" stroke="#000000" points="1678.5001,-140.9909 1682,-150.991 1685.5001,-140.991 1678.5001,-140.9909"/>
</g>
<!-- UserActivatedPipe  -->
<g id="node16" class="node">
<title>UserActivatedPipe </title>
<polygon fill="#fb8072" stroke="#000000" points="1872.7366,-252 1747.2634,-252 1747.2634,-216 1872.7366,-216 1872.7366,-252"/>
<text text-anchor="middle" x="1810" y="-229.8" font-family="Times,serif" font-size="14.00" fill="#000000">UserActivatedPipe </text>
</g>
<!-- PipesModule&#45;&gt;UserActivatedPipe  -->
<g id="edge14" class="edge">
<title>PipesModule&#45;&gt;UserActivatedPipe </title>
<path fill="none" stroke="#000000" stroke-dasharray="5,2" d="M1726.9456,-175C1756.1089,-175 1788.7106,-175 1788.7106,-175 1788.7106,-175 1788.7106,-205.9775 1788.7106,-205.9775"/>
<polygon fill="#000000" stroke="#000000" points="1785.2107,-205.9774 1788.7106,-215.9775 1792.2107,-205.9775 1785.2107,-205.9774"/>
</g>
<!-- UserFilterPipe  -->
<g id="node17" class="node">
<title>UserFilterPipe </title>
<polygon fill="#fb8072" stroke="#000000" points="1729.6439,-252 1628.3561,-252 1628.3561,-216 1729.6439,-216 1729.6439,-252"/>
<text text-anchor="middle" x="1679" y="-229.8" font-family="Times,serif" font-size="14.00" fill="#000000">UserFilterPipe </text>
</g>
<!-- PipesModule&#45;&gt;UserFilterPipe  -->
<g id="edge15" class="edge">
<title>PipesModule&#45;&gt;UserFilterPipe </title>
<path fill="none" stroke="#000000" stroke-dasharray="5,2" d="M1682,-187.1061C1682,-187.1061 1682,-205.991 1682,-205.991"/>
<polygon fill="#000000" stroke="#000000" points="1678.5001,-205.9909 1682,-215.991 1685.5001,-205.991 1678.5001,-205.9909"/>
</g>
</g>
</svg>
