<?xml version="1.0" encoding="UTF-8" standalone="no"?>
<!DOCTYPE svg PUBLIC "-//W3C//DTD SVG 1.1//EN"
 "http://www.w3.org/Graphics/SVG/1.1/DTD/svg11.dtd">
<!-- Generated by graphviz version 2.40.1 (20161225.0304)
 -->
<!-- Title: dependencies Pages: 1 -->
<svg width="504pt" height="284pt"
 viewBox="0.00 0.00 504.00 284.00" xmlns="http://www.w3.org/2000/svg" xmlns:xlink="http://www.w3.org/1999/xlink">
<g id="graph0" class="graph" transform="scale(1 1) rotate(0) translate(4 280)">
<title>dependencies</title>
<polygon fill="#ffffff" stroke="transparent" points="-4,4 -4,-280 500,-280 500,4 -4,4"/>
<text text-anchor="start" x="227.0091" y="-42.4" font-family="sans-serif" font-weight="bold" font-size="14.00" fill="#000000">Legend</text>
<polygon fill="#ffffb3" stroke="transparent" points="14,-10 14,-30 34,-30 34,-10 14,-10"/>
<text text-anchor="start" x="37.629" y="-15.4" font-family="sans-serif" font-size="14.00" fill="#000000"> &#160;Declarations</text>
<polygon fill="#8dd3c7" stroke="transparent" points="127,-10 127,-30 147,-30 147,-10 127,-10"/>
<text text-anchor="start" x="150.7251" y="-15.4" font-family="sans-serif" font-size="14.00" fill="#000000"> &#160;Module</text>
<polygon fill="#80b1d3" stroke="transparent" points="213,-10 213,-30 233,-30 233,-10 213,-10"/>
<text text-anchor="start" x="236.7812" y="-15.4" font-family="sans-serif" font-size="14.00" fill="#000000"> &#160;Bootstrap</text>
<polygon fill="#fdb462" stroke="transparent" points="310,-10 310,-30 330,-30 330,-10 310,-10"/>
<text text-anchor="start" x="333.6732" y="-15.4" font-family="sans-serif" font-size="14.00" fill="#000000"> &#160;Providers</text>
<polygon fill="#fb8072" stroke="transparent" points="406,-10 406,-30 426,-30 426,-10 406,-10"/>
<text text-anchor="start" x="429.7258" y="-15.4" font-family="sans-serif" font-size="14.00" fill="#000000"> &#160;Exports</text>
<g id="clust1" class="cluster">
<title>cluster_PipesModule</title>
<polygon fill="none" stroke="#000000" stroke-dasharray="1,5" points="109.5,-70 109.5,-268 386.5,-268 386.5,-70 109.5,-70"/>
</g>
<g id="clust2" class="cluster">
<title>cluster_PipesModule_declarations</title>
<polygon fill="none" stroke="#000000" points="121.5,-78 121.5,-130 375.5,-130 375.5,-78 121.5,-78"/>
</g>
<g id="clust6" class="cluster">
<title>cluster_PipesModule_exports</title>
<polygon fill="none" stroke="#000000" points="117.5,-208 117.5,-260 378.5,-260 378.5,-208 117.5,-208"/>
</g>
<!-- UserActivatedPipe -->
<g id="node1" class="node">
<title>UserActivatedPipe</title>
<polygon fill="#ffffb3" stroke="#000000" points="367.2367,-122 245.7633,-122 245.7633,-86 367.2367,-86 367.2367,-122"/>
<text text-anchor="middle" x="306.5" y="-99.8" font-family="Times,serif" font-size="14.00" fill="#000000">UserActivatedPipe</text>
</g>
<!-- PipesModule -->
<g id="node3" class="node">
<title>PipesModule</title>
<polygon fill="#8dd3c7" stroke="#000000" points="224.3823,-187 221.3823,-191 200.3823,-191 197.3823,-187 134.6177,-187 134.6177,-151 224.3823,-151 224.3823,-187"/>
<text text-anchor="middle" x="179.5" y="-164.8" font-family="Times,serif" font-size="14.00" fill="#000000">PipesModule</text>
</g>
<!-- UserActivatedPipe&#45;&gt;PipesModule -->
<g id="edge1" class="edge">
<title>UserActivatedPipe&#45;&gt;PipesModule</title>
<path fill="none" stroke="#000000" d="M326.7894,-122.0225C326.7894,-139.3734 326.7894,-163 326.7894,-163 326.7894,-163 234.492,-163 234.492,-163"/>
<polygon fill="#000000" stroke="#000000" points="234.492,-159.5001 224.492,-163 234.492,-166.5001 234.492,-159.5001"/>
</g>
<!-- UserFilterPipe -->
<g id="node2" class="node">
<title>UserFilterPipe</title>
<polygon fill="#ffffb3" stroke="#000000" points="227.1444,-122 129.8556,-122 129.8556,-86 227.1444,-86 227.1444,-122"/>
<text text-anchor="middle" x="178.5" y="-99.8" font-family="Times,serif" font-size="14.00" fill="#000000">UserFilterPipe</text>
</g>
<!-- UserFilterPipe&#45;&gt;PipesModule -->
<g id="edge2" class="edge">
<title>UserFilterPipe&#45;&gt;PipesModule</title>
<path fill="none" stroke="#000000" d="M179.5,-122.1061C179.5,-122.1061 179.5,-140.991 179.5,-140.991"/>
<polygon fill="#000000" stroke="#000000" points="176.0001,-140.9909 179.5,-150.991 183.0001,-140.991 176.0001,-140.9909"/>
</g>
<!-- UserActivatedPipe  -->
<g id="node4" class="node">
<title>UserActivatedPipe </title>
<polygon fill="#fb8072" stroke="#000000" points="370.2366,-252 244.7634,-252 244.7634,-216 370.2366,-216 370.2366,-252"/>
<text text-anchor="middle" x="307.5" y="-229.8" font-family="Times,serif" font-size="14.00" fill="#000000">UserActivatedPipe </text>
</g>
<!-- PipesModule&#45;&gt;UserActivatedPipe  -->
<g id="edge3" class="edge">
<title>PipesModule&#45;&gt;UserActivatedPipe </title>
<path fill="none" stroke="#000000" stroke-dasharray="5,2" d="M224.4456,-175C253.6089,-175 286.2106,-175 286.2106,-175 286.2106,-175 286.2106,-205.9775 286.2106,-205.9775"/>
<polygon fill="#000000" stroke="#000000" points="282.7107,-205.9774 286.2106,-215.9775 289.7107,-205.9775 282.7107,-205.9774"/>
</g>
<!-- UserFilterPipe  -->
<g id="node5" class="node">
<title>UserFilterPipe </title>
<polygon fill="#fb8072" stroke="#000000" points="227.1439,-252 125.8561,-252 125.8561,-216 227.1439,-216 227.1439,-252"/>
<text text-anchor="middle" x="176.5" y="-229.8" font-family="Times,serif" font-size="14.00" fill="#000000">UserFilterPipe </text>
</g>
<!-- PipesModule&#45;&gt;UserFilterPipe  -->
<g id="edge4" class="edge">
<title>PipesModule&#45;&gt;UserFilterPipe </title>
<path fill="none" stroke="#000000" stroke-dasharray="5,2" d="M179.5,-187.1061C179.5,-187.1061 179.5,-205.991 179.5,-205.991"/>
<polygon fill="#000000" stroke="#000000" points="176.0001,-205.9909 179.5,-215.991 183.0001,-205.991 176.0001,-205.9909"/>
</g>
</g>
</svg>
